<svg width="147" height="26" viewBox="0 0 147 26" fill="none" xmlns="http://www.w3.org/2000/svg">
<path fill-rule="evenodd" clip-rule="evenodd" d="M19.2113 4.89148L15.7641 1.44434L1.46484 15.7436L4.91199 19.1908L19.2113 4.89148ZM30.0634 15.7436L21.1253 6.80556L17.6782 10.2527L26.6162 19.1908L30.0634 15.7436ZM24.7055 21.1094L15.7685 12.1724L12.3213 15.6196L12.3163 15.6146L6.82645 21.1045L10.2736 24.5516L15.7635 19.0617L21.2584 24.5566L24.7055 21.1094ZM35.9862 23.8247H40.4831V14.6448H50.1282V10.7992H40.4831V5.4649H51.865V1.65028H35.9862V23.8247ZM53.9041 23.8247H58.1219V7.91494H53.9041V23.8247ZM53.9041 5.43389H58.1219V1.65028H53.9041V5.43389ZM64.9024 23.8247H60.6846V7.91494H64.7473V10.0548H64.8403C65.7087 8.59723 67.2594 7.48076 69.4613 7.48076C71.4771 7.48076 73.0898 8.59723 73.8652 10.2719H73.9272C75.0126 8.5352 76.6874 7.48076 78.7032 7.48076C82.0526 7.48076 83.9444 9.65168 83.9444 13.1251V23.8247H79.7266V13.8385C79.7266 12.0397 78.8273 11.1093 77.2766 11.1093C75.5089 11.1093 74.4234 12.4739 74.4234 14.5828V23.8247H70.2056V13.8385C70.2056 12.0397 69.3062 11.1093 67.7556 11.1093C66.0498 11.1093 64.9024 12.4739 64.9024 14.5828V23.8247ZM93.8682 24.2899C97.9619 24.2899 100.474 21.9019 101.063 19.0797H96.9075C96.4423 20.2892 95.4809 21.0335 93.8372 21.0335C91.4491 21.0335 90.0846 19.5139 89.7744 17.0638H101.311C101.311 11.3884 98.5822 7.48076 93.465 7.48076C88.813 7.48076 85.6187 11.1403 85.6187 15.8543C85.6187 20.5993 88.5959 24.2899 93.8682 24.2899ZM93.527 10.7371C95.4498 10.7371 96.7834 12.1327 96.9075 14.1486H89.8364C90.2086 12.0707 91.2941 10.7371 93.527 10.7371ZM103.108 7.91494H107.233V10.0859H107.326C108.412 8.38014 109.869 7.48076 112.04 7.48076C115.328 7.48076 117.529 9.96181 117.529 13.4353V23.8247H113.312V14.0555C113.312 12.3498 112.319 11.1403 110.552 11.1403C108.691 11.1403 107.326 12.6289 107.326 14.7999V23.8247H103.108V7.91494ZM118.741 10.7061H120.943V20.0411C120.943 23.0494 123.207 23.8557 125.254 23.8557C126.928 23.8557 127.89 23.7937 127.89 23.7937V20.6924C127.89 20.6924 127.177 20.7234 126.649 20.7234C125.719 20.7234 125.068 20.3202 125.068 19.1417V10.7061H127.797V7.91494H125.068V2.95283H120.943V7.91494H118.741V10.7061ZM145.51 15.8853C145.51 20.6303 142.129 24.2899 137.198 24.2899C132.267 24.2899 128.887 20.6303 128.887 15.8853C128.887 11.1403 132.267 7.48076 137.198 7.48076C142.129 7.48076 145.51 11.1403 145.51 15.8853ZM133.167 15.8853C133.167 18.9866 134.593 21.0645 137.198 21.0645C139.772 21.0645 141.23 18.9866 141.23 15.8853C141.23 12.784 139.772 10.6751 137.198 10.6751C134.593 10.6751 133.167 12.784 133.167 15.8853Z" fill="#F95738"/>
</svg>
